<mxfile host="Electron" modified="2023-11-01T13:36:01.126Z" agent="Mozilla/5.0 (Windows NT 10.0; Win64; x64) AppleWebKit/537.36 (KHTML, like Gecko) draw.io/22.0.3 Chrome/114.0.5735.289 Electron/25.8.4 Safari/537.36" etag="3MkS74zaeVO1TBCn-PYP" version="22.0.3" type="device">
  <diagram name="Page-1" id="fNONxVTmiSpnN5PAM4gp">
    <mxGraphModel dx="1727" dy="1010" grid="1" gridSize="10" guides="1" tooltips="1" connect="1" arrows="1" fold="1" page="1" pageScale="1" pageWidth="850" pageHeight="1100" math="0" shadow="0">
      <root>
        <mxCell id="0" />
        <mxCell id="1" parent="0" />
        <mxCell id="K3cF6xItk9wDHvpq5ndR-1" value="ORDER_TYPE" style="shape=table;startSize=25;container=1;collapsible=0;childLayout=tableLayout;fixedRows=1;rowLines=1;fontStyle=1;align=center;resizeLast=1;" vertex="1" parent="1">
          <mxGeometry x="202" y="20" width="127" height="135" as="geometry" />
        </mxCell>
        <mxCell id="K3cF6xItk9wDHvpq5ndR-2" style="shape=tableRow;horizontal=0;startSize=0;swimlaneHead=0;swimlaneBody=0;fillColor=none;collapsible=0;dropTarget=0;points=[[0,0.5],[1,0.5]];portConstraint=eastwest;top=0;left=0;right=0;bottom=0;" vertex="1" parent="K3cF6xItk9wDHvpq5ndR-1">
          <mxGeometry y="25" width="127" height="22" as="geometry" />
        </mxCell>
        <mxCell id="K3cF6xItk9wDHvpq5ndR-3" value="uuid" style="shape=partialRectangle;connectable=0;fillColor=none;top=0;left=0;bottom=0;right=0;align=left;spacingLeft=2;overflow=hidden;fontSize=11;" vertex="1" parent="K3cF6xItk9wDHvpq5ndR-2">
          <mxGeometry width="66" height="22" as="geometry">
            <mxRectangle width="66" height="22" as="alternateBounds" />
          </mxGeometry>
        </mxCell>
        <mxCell id="K3cF6xItk9wDHvpq5ndR-4" value="id" style="shape=partialRectangle;connectable=0;fillColor=none;top=0;left=0;bottom=0;right=0;align=left;spacingLeft=2;overflow=hidden;fontSize=11;" vertex="1" parent="K3cF6xItk9wDHvpq5ndR-2">
          <mxGeometry x="66" width="61" height="22" as="geometry">
            <mxRectangle width="61" height="22" as="alternateBounds" />
          </mxGeometry>
        </mxCell>
        <mxCell id="K3cF6xItk9wDHvpq5ndR-5" style="shape=tableRow;horizontal=0;startSize=0;swimlaneHead=0;swimlaneBody=0;fillColor=none;collapsible=0;dropTarget=0;points=[[0,0.5],[1,0.5]];portConstraint=eastwest;top=0;left=0;right=0;bottom=0;" vertex="1" parent="K3cF6xItk9wDHvpq5ndR-1">
          <mxGeometry y="47" width="127" height="22" as="geometry" />
        </mxCell>
        <mxCell id="K3cF6xItk9wDHvpq5ndR-6" value="date" style="shape=partialRectangle;connectable=0;fillColor=none;top=0;left=0;bottom=0;right=0;align=left;spacingLeft=2;overflow=hidden;fontSize=11;" vertex="1" parent="K3cF6xItk9wDHvpq5ndR-5">
          <mxGeometry width="66" height="22" as="geometry">
            <mxRectangle width="66" height="22" as="alternateBounds" />
          </mxGeometry>
        </mxCell>
        <mxCell id="K3cF6xItk9wDHvpq5ndR-7" value="created_at" style="shape=partialRectangle;connectable=0;fillColor=none;top=0;left=0;bottom=0;right=0;align=left;spacingLeft=2;overflow=hidden;fontSize=11;" vertex="1" parent="K3cF6xItk9wDHvpq5ndR-5">
          <mxGeometry x="66" width="61" height="22" as="geometry">
            <mxRectangle width="61" height="22" as="alternateBounds" />
          </mxGeometry>
        </mxCell>
        <mxCell id="K3cF6xItk9wDHvpq5ndR-8" style="shape=tableRow;horizontal=0;startSize=0;swimlaneHead=0;swimlaneBody=0;fillColor=none;collapsible=0;dropTarget=0;points=[[0,0.5],[1,0.5]];portConstraint=eastwest;top=0;left=0;right=0;bottom=0;" vertex="1" parent="K3cF6xItk9wDHvpq5ndR-1">
          <mxGeometry y="69" width="127" height="22" as="geometry" />
        </mxCell>
        <mxCell id="K3cF6xItk9wDHvpq5ndR-9" value="date" style="shape=partialRectangle;connectable=0;fillColor=none;top=0;left=0;bottom=0;right=0;align=left;spacingLeft=2;overflow=hidden;fontSize=11;" vertex="1" parent="K3cF6xItk9wDHvpq5ndR-8">
          <mxGeometry width="66" height="22" as="geometry">
            <mxRectangle width="66" height="22" as="alternateBounds" />
          </mxGeometry>
        </mxCell>
        <mxCell id="K3cF6xItk9wDHvpq5ndR-10" value="updated_at" style="shape=partialRectangle;connectable=0;fillColor=none;top=0;left=0;bottom=0;right=0;align=left;spacingLeft=2;overflow=hidden;fontSize=11;" vertex="1" parent="K3cF6xItk9wDHvpq5ndR-8">
          <mxGeometry x="66" width="61" height="22" as="geometry">
            <mxRectangle width="61" height="22" as="alternateBounds" />
          </mxGeometry>
        </mxCell>
        <mxCell id="K3cF6xItk9wDHvpq5ndR-11" style="shape=tableRow;horizontal=0;startSize=0;swimlaneHead=0;swimlaneBody=0;fillColor=none;collapsible=0;dropTarget=0;points=[[0,0.5],[1,0.5]];portConstraint=eastwest;top=0;left=0;right=0;bottom=0;" vertex="1" parent="K3cF6xItk9wDHvpq5ndR-1">
          <mxGeometry y="91" width="127" height="22" as="geometry" />
        </mxCell>
        <mxCell id="K3cF6xItk9wDHvpq5ndR-12" value="varchar(50)" style="shape=partialRectangle;connectable=0;fillColor=none;top=0;left=0;bottom=0;right=0;align=left;spacingLeft=2;overflow=hidden;fontSize=11;" vertex="1" parent="K3cF6xItk9wDHvpq5ndR-11">
          <mxGeometry width="66" height="22" as="geometry">
            <mxRectangle width="66" height="22" as="alternateBounds" />
          </mxGeometry>
        </mxCell>
        <mxCell id="K3cF6xItk9wDHvpq5ndR-13" value="name" style="shape=partialRectangle;connectable=0;fillColor=none;top=0;left=0;bottom=0;right=0;align=left;spacingLeft=2;overflow=hidden;fontSize=11;" vertex="1" parent="K3cF6xItk9wDHvpq5ndR-11">
          <mxGeometry x="66" width="61" height="22" as="geometry">
            <mxRectangle width="61" height="22" as="alternateBounds" />
          </mxGeometry>
        </mxCell>
        <mxCell id="K3cF6xItk9wDHvpq5ndR-14" style="shape=tableRow;horizontal=0;startSize=0;swimlaneHead=0;swimlaneBody=0;fillColor=none;collapsible=0;dropTarget=0;points=[[0,0.5],[1,0.5]];portConstraint=eastwest;top=0;left=0;right=0;bottom=0;" vertex="1" parent="K3cF6xItk9wDHvpq5ndR-1">
          <mxGeometry y="113" width="127" height="22" as="geometry" />
        </mxCell>
        <mxCell id="K3cF6xItk9wDHvpq5ndR-15" value="varchar(50)" style="shape=partialRectangle;connectable=0;fillColor=none;top=0;left=0;bottom=0;right=0;align=left;spacingLeft=2;overflow=hidden;fontSize=11;" vertex="1" parent="K3cF6xItk9wDHvpq5ndR-14">
          <mxGeometry width="66" height="22" as="geometry">
            <mxRectangle width="66" height="22" as="alternateBounds" />
          </mxGeometry>
        </mxCell>
        <mxCell id="K3cF6xItk9wDHvpq5ndR-16" value="dep_type" style="shape=partialRectangle;connectable=0;fillColor=none;top=0;left=0;bottom=0;right=0;align=left;spacingLeft=2;overflow=hidden;fontSize=11;" vertex="1" parent="K3cF6xItk9wDHvpq5ndR-14">
          <mxGeometry x="66" width="61" height="22" as="geometry">
            <mxRectangle width="61" height="22" as="alternateBounds" />
          </mxGeometry>
        </mxCell>
        <mxCell id="K3cF6xItk9wDHvpq5ndR-17" value="ORDER_TYPE_PARAM" style="shape=table;startSize=25;container=1;collapsible=0;childLayout=tableLayout;fixedRows=1;rowLines=1;fontStyle=1;align=center;resizeLast=1;" vertex="1" parent="1">
          <mxGeometry x="20" y="255" width="141" height="157" as="geometry" />
        </mxCell>
        <mxCell id="K3cF6xItk9wDHvpq5ndR-18" style="shape=tableRow;horizontal=0;startSize=0;swimlaneHead=0;swimlaneBody=0;fillColor=none;collapsible=0;dropTarget=0;points=[[0,0.5],[1,0.5]];portConstraint=eastwest;top=0;left=0;right=0;bottom=0;" vertex="1" parent="K3cF6xItk9wDHvpq5ndR-17">
          <mxGeometry y="25" width="141" height="22" as="geometry" />
        </mxCell>
        <mxCell id="K3cF6xItk9wDHvpq5ndR-19" value="uuid" style="shape=partialRectangle;connectable=0;fillColor=none;top=0;left=0;bottom=0;right=0;align=left;spacingLeft=2;overflow=hidden;fontSize=11;" vertex="1" parent="K3cF6xItk9wDHvpq5ndR-18">
          <mxGeometry width="66" height="22" as="geometry">
            <mxRectangle width="66" height="22" as="alternateBounds" />
          </mxGeometry>
        </mxCell>
        <mxCell id="K3cF6xItk9wDHvpq5ndR-20" value="id" style="shape=partialRectangle;connectable=0;fillColor=none;top=0;left=0;bottom=0;right=0;align=left;spacingLeft=2;overflow=hidden;fontSize=11;" vertex="1" parent="K3cF6xItk9wDHvpq5ndR-18">
          <mxGeometry x="66" width="75" height="22" as="geometry">
            <mxRectangle width="75" height="22" as="alternateBounds" />
          </mxGeometry>
        </mxCell>
        <mxCell id="K3cF6xItk9wDHvpq5ndR-21" style="shape=tableRow;horizontal=0;startSize=0;swimlaneHead=0;swimlaneBody=0;fillColor=none;collapsible=0;dropTarget=0;points=[[0,0.5],[1,0.5]];portConstraint=eastwest;top=0;left=0;right=0;bottom=0;" vertex="1" parent="K3cF6xItk9wDHvpq5ndR-17">
          <mxGeometry y="47" width="141" height="22" as="geometry" />
        </mxCell>
        <mxCell id="K3cF6xItk9wDHvpq5ndR-22" value="date" style="shape=partialRectangle;connectable=0;fillColor=none;top=0;left=0;bottom=0;right=0;align=left;spacingLeft=2;overflow=hidden;fontSize=11;" vertex="1" parent="K3cF6xItk9wDHvpq5ndR-21">
          <mxGeometry width="66" height="22" as="geometry">
            <mxRectangle width="66" height="22" as="alternateBounds" />
          </mxGeometry>
        </mxCell>
        <mxCell id="K3cF6xItk9wDHvpq5ndR-23" value="created_at" style="shape=partialRectangle;connectable=0;fillColor=none;top=0;left=0;bottom=0;right=0;align=left;spacingLeft=2;overflow=hidden;fontSize=11;" vertex="1" parent="K3cF6xItk9wDHvpq5ndR-21">
          <mxGeometry x="66" width="75" height="22" as="geometry">
            <mxRectangle width="75" height="22" as="alternateBounds" />
          </mxGeometry>
        </mxCell>
        <mxCell id="K3cF6xItk9wDHvpq5ndR-24" style="shape=tableRow;horizontal=0;startSize=0;swimlaneHead=0;swimlaneBody=0;fillColor=none;collapsible=0;dropTarget=0;points=[[0,0.5],[1,0.5]];portConstraint=eastwest;top=0;left=0;right=0;bottom=0;" vertex="1" parent="K3cF6xItk9wDHvpq5ndR-17">
          <mxGeometry y="69" width="141" height="22" as="geometry" />
        </mxCell>
        <mxCell id="K3cF6xItk9wDHvpq5ndR-25" value="date" style="shape=partialRectangle;connectable=0;fillColor=none;top=0;left=0;bottom=0;right=0;align=left;spacingLeft=2;overflow=hidden;fontSize=11;" vertex="1" parent="K3cF6xItk9wDHvpq5ndR-24">
          <mxGeometry width="66" height="22" as="geometry">
            <mxRectangle width="66" height="22" as="alternateBounds" />
          </mxGeometry>
        </mxCell>
        <mxCell id="K3cF6xItk9wDHvpq5ndR-26" value="updated_at" style="shape=partialRectangle;connectable=0;fillColor=none;top=0;left=0;bottom=0;right=0;align=left;spacingLeft=2;overflow=hidden;fontSize=11;" vertex="1" parent="K3cF6xItk9wDHvpq5ndR-24">
          <mxGeometry x="66" width="75" height="22" as="geometry">
            <mxRectangle width="75" height="22" as="alternateBounds" />
          </mxGeometry>
        </mxCell>
        <mxCell id="K3cF6xItk9wDHvpq5ndR-27" style="shape=tableRow;horizontal=0;startSize=0;swimlaneHead=0;swimlaneBody=0;fillColor=none;collapsible=0;dropTarget=0;points=[[0,0.5],[1,0.5]];portConstraint=eastwest;top=0;left=0;right=0;bottom=0;" vertex="1" parent="K3cF6xItk9wDHvpq5ndR-17">
          <mxGeometry y="91" width="141" height="22" as="geometry" />
        </mxCell>
        <mxCell id="K3cF6xItk9wDHvpq5ndR-28" value="varchar(50)" style="shape=partialRectangle;connectable=0;fillColor=none;top=0;left=0;bottom=0;right=0;align=left;spacingLeft=2;overflow=hidden;fontSize=11;" vertex="1" parent="K3cF6xItk9wDHvpq5ndR-27">
          <mxGeometry width="66" height="22" as="geometry">
            <mxRectangle width="66" height="22" as="alternateBounds" />
          </mxGeometry>
        </mxCell>
        <mxCell id="K3cF6xItk9wDHvpq5ndR-29" value="name" style="shape=partialRectangle;connectable=0;fillColor=none;top=0;left=0;bottom=0;right=0;align=left;spacingLeft=2;overflow=hidden;fontSize=11;" vertex="1" parent="K3cF6xItk9wDHvpq5ndR-27">
          <mxGeometry x="66" width="75" height="22" as="geometry">
            <mxRectangle width="75" height="22" as="alternateBounds" />
          </mxGeometry>
        </mxCell>
        <mxCell id="K3cF6xItk9wDHvpq5ndR-30" style="shape=tableRow;horizontal=0;startSize=0;swimlaneHead=0;swimlaneBody=0;fillColor=none;collapsible=0;dropTarget=0;points=[[0,0.5],[1,0.5]];portConstraint=eastwest;top=0;left=0;right=0;bottom=0;" vertex="1" parent="K3cF6xItk9wDHvpq5ndR-17">
          <mxGeometry y="113" width="141" height="22" as="geometry" />
        </mxCell>
        <mxCell id="K3cF6xItk9wDHvpq5ndR-31" value="varchar(50)" style="shape=partialRectangle;connectable=0;fillColor=none;top=0;left=0;bottom=0;right=0;align=left;spacingLeft=2;overflow=hidden;fontSize=11;" vertex="1" parent="K3cF6xItk9wDHvpq5ndR-30">
          <mxGeometry width="66" height="22" as="geometry">
            <mxRectangle width="66" height="22" as="alternateBounds" />
          </mxGeometry>
        </mxCell>
        <mxCell id="K3cF6xItk9wDHvpq5ndR-32" value="value_type" style="shape=partialRectangle;connectable=0;fillColor=none;top=0;left=0;bottom=0;right=0;align=left;spacingLeft=2;overflow=hidden;fontSize=11;" vertex="1" parent="K3cF6xItk9wDHvpq5ndR-30">
          <mxGeometry x="66" width="75" height="22" as="geometry">
            <mxRectangle width="75" height="22" as="alternateBounds" />
          </mxGeometry>
        </mxCell>
        <mxCell id="K3cF6xItk9wDHvpq5ndR-33" style="shape=tableRow;horizontal=0;startSize=0;swimlaneHead=0;swimlaneBody=0;fillColor=none;collapsible=0;dropTarget=0;points=[[0,0.5],[1,0.5]];portConstraint=eastwest;top=0;left=0;right=0;bottom=0;" vertex="1" parent="K3cF6xItk9wDHvpq5ndR-17">
          <mxGeometry y="135" width="141" height="22" as="geometry" />
        </mxCell>
        <mxCell id="K3cF6xItk9wDHvpq5ndR-34" value="bool" style="shape=partialRectangle;connectable=0;fillColor=none;top=0;left=0;bottom=0;right=0;align=left;spacingLeft=2;overflow=hidden;fontSize=11;" vertex="1" parent="K3cF6xItk9wDHvpq5ndR-33">
          <mxGeometry width="66" height="22" as="geometry">
            <mxRectangle width="66" height="22" as="alternateBounds" />
          </mxGeometry>
        </mxCell>
        <mxCell id="K3cF6xItk9wDHvpq5ndR-35" value="required" style="shape=partialRectangle;connectable=0;fillColor=none;top=0;left=0;bottom=0;right=0;align=left;spacingLeft=2;overflow=hidden;fontSize=11;" vertex="1" parent="K3cF6xItk9wDHvpq5ndR-33">
          <mxGeometry x="66" width="75" height="22" as="geometry">
            <mxRectangle width="75" height="22" as="alternateBounds" />
          </mxGeometry>
        </mxCell>
        <mxCell id="K3cF6xItk9wDHvpq5ndR-36" value="ORDER" style="shape=table;startSize=25;container=1;collapsible=0;childLayout=tableLayout;fixedRows=1;rowLines=1;fontStyle=1;align=center;resizeLast=1;" vertex="1" parent="1">
          <mxGeometry x="307" y="256" width="180" height="157" as="geometry" />
        </mxCell>
        <mxCell id="K3cF6xItk9wDHvpq5ndR-37" style="shape=tableRow;horizontal=0;startSize=0;swimlaneHead=0;swimlaneBody=0;fillColor=none;collapsible=0;dropTarget=0;points=[[0,0.5],[1,0.5]];portConstraint=eastwest;top=0;left=0;right=0;bottom=0;" vertex="1" parent="K3cF6xItk9wDHvpq5ndR-36">
          <mxGeometry y="25" width="180" height="22" as="geometry" />
        </mxCell>
        <mxCell id="K3cF6xItk9wDHvpq5ndR-38" value="uuid" style="shape=partialRectangle;connectable=0;fillColor=none;top=0;left=0;bottom=0;right=0;align=left;spacingLeft=2;overflow=hidden;fontSize=11;" vertex="1" parent="K3cF6xItk9wDHvpq5ndR-37">
          <mxGeometry width="66" height="22" as="geometry">
            <mxRectangle width="66" height="22" as="alternateBounds" />
          </mxGeometry>
        </mxCell>
        <mxCell id="K3cF6xItk9wDHvpq5ndR-39" value="id" style="shape=partialRectangle;connectable=0;fillColor=none;top=0;left=0;bottom=0;right=0;align=left;spacingLeft=2;overflow=hidden;fontSize=11;" vertex="1" parent="K3cF6xItk9wDHvpq5ndR-37">
          <mxGeometry x="66" width="114" height="22" as="geometry">
            <mxRectangle width="114" height="22" as="alternateBounds" />
          </mxGeometry>
        </mxCell>
        <mxCell id="K3cF6xItk9wDHvpq5ndR-40" style="shape=tableRow;horizontal=0;startSize=0;swimlaneHead=0;swimlaneBody=0;fillColor=none;collapsible=0;dropTarget=0;points=[[0,0.5],[1,0.5]];portConstraint=eastwest;top=0;left=0;right=0;bottom=0;" vertex="1" parent="K3cF6xItk9wDHvpq5ndR-36">
          <mxGeometry y="47" width="180" height="22" as="geometry" />
        </mxCell>
        <mxCell id="K3cF6xItk9wDHvpq5ndR-41" value="date" style="shape=partialRectangle;connectable=0;fillColor=none;top=0;left=0;bottom=0;right=0;align=left;spacingLeft=2;overflow=hidden;fontSize=11;" vertex="1" parent="K3cF6xItk9wDHvpq5ndR-40">
          <mxGeometry width="66" height="22" as="geometry">
            <mxRectangle width="66" height="22" as="alternateBounds" />
          </mxGeometry>
        </mxCell>
        <mxCell id="K3cF6xItk9wDHvpq5ndR-42" value="created_at" style="shape=partialRectangle;connectable=0;fillColor=none;top=0;left=0;bottom=0;right=0;align=left;spacingLeft=2;overflow=hidden;fontSize=11;" vertex="1" parent="K3cF6xItk9wDHvpq5ndR-40">
          <mxGeometry x="66" width="114" height="22" as="geometry">
            <mxRectangle width="114" height="22" as="alternateBounds" />
          </mxGeometry>
        </mxCell>
        <mxCell id="K3cF6xItk9wDHvpq5ndR-43" style="shape=tableRow;horizontal=0;startSize=0;swimlaneHead=0;swimlaneBody=0;fillColor=none;collapsible=0;dropTarget=0;points=[[0,0.5],[1,0.5]];portConstraint=eastwest;top=0;left=0;right=0;bottom=0;" vertex="1" parent="K3cF6xItk9wDHvpq5ndR-36">
          <mxGeometry y="69" width="180" height="22" as="geometry" />
        </mxCell>
        <mxCell id="K3cF6xItk9wDHvpq5ndR-44" value="date" style="shape=partialRectangle;connectable=0;fillColor=none;top=0;left=0;bottom=0;right=0;align=left;spacingLeft=2;overflow=hidden;fontSize=11;" vertex="1" parent="K3cF6xItk9wDHvpq5ndR-43">
          <mxGeometry width="66" height="22" as="geometry">
            <mxRectangle width="66" height="22" as="alternateBounds" />
          </mxGeometry>
        </mxCell>
        <mxCell id="K3cF6xItk9wDHvpq5ndR-45" value="updated_at" style="shape=partialRectangle;connectable=0;fillColor=none;top=0;left=0;bottom=0;right=0;align=left;spacingLeft=2;overflow=hidden;fontSize=11;" vertex="1" parent="K3cF6xItk9wDHvpq5ndR-43">
          <mxGeometry x="66" width="114" height="22" as="geometry">
            <mxRectangle width="114" height="22" as="alternateBounds" />
          </mxGeometry>
        </mxCell>
        <mxCell id="K3cF6xItk9wDHvpq5ndR-46" style="shape=tableRow;horizontal=0;startSize=0;swimlaneHead=0;swimlaneBody=0;fillColor=none;collapsible=0;dropTarget=0;points=[[0,0.5],[1,0.5]];portConstraint=eastwest;top=0;left=0;right=0;bottom=0;" vertex="1" parent="K3cF6xItk9wDHvpq5ndR-36">
          <mxGeometry y="91" width="180" height="22" as="geometry" />
        </mxCell>
        <mxCell id="K3cF6xItk9wDHvpq5ndR-47" value="varchar(50)" style="shape=partialRectangle;connectable=0;fillColor=none;top=0;left=0;bottom=0;right=0;align=left;spacingLeft=2;overflow=hidden;fontSize=11;" vertex="1" parent="K3cF6xItk9wDHvpq5ndR-46">
          <mxGeometry width="66" height="22" as="geometry">
            <mxRectangle width="66" height="22" as="alternateBounds" />
          </mxGeometry>
        </mxCell>
        <mxCell id="K3cF6xItk9wDHvpq5ndR-48" value="status" style="shape=partialRectangle;connectable=0;fillColor=none;top=0;left=0;bottom=0;right=0;align=left;spacingLeft=2;overflow=hidden;fontSize=11;" vertex="1" parent="K3cF6xItk9wDHvpq5ndR-46">
          <mxGeometry x="66" width="114" height="22" as="geometry">
            <mxRectangle width="114" height="22" as="alternateBounds" />
          </mxGeometry>
        </mxCell>
        <mxCell id="K3cF6xItk9wDHvpq5ndR-49" style="shape=tableRow;horizontal=0;startSize=0;swimlaneHead=0;swimlaneBody=0;fillColor=none;collapsible=0;dropTarget=0;points=[[0,0.5],[1,0.5]];portConstraint=eastwest;top=0;left=0;right=0;bottom=0;" vertex="1" parent="K3cF6xItk9wDHvpq5ndR-36">
          <mxGeometry y="113" width="180" height="22" as="geometry" />
        </mxCell>
        <mxCell id="K3cF6xItk9wDHvpq5ndR-50" value="uuid" style="shape=partialRectangle;connectable=0;fillColor=none;top=0;left=0;bottom=0;right=0;align=left;spacingLeft=2;overflow=hidden;fontSize=11;" vertex="1" parent="K3cF6xItk9wDHvpq5ndR-49">
          <mxGeometry width="66" height="22" as="geometry">
            <mxRectangle width="66" height="22" as="alternateBounds" />
          </mxGeometry>
        </mxCell>
        <mxCell id="K3cF6xItk9wDHvpq5ndR-51" value="user_customer_id" style="shape=partialRectangle;connectable=0;fillColor=none;top=0;left=0;bottom=0;right=0;align=left;spacingLeft=2;overflow=hidden;fontSize=11;" vertex="1" parent="K3cF6xItk9wDHvpq5ndR-49">
          <mxGeometry x="66" width="114" height="22" as="geometry">
            <mxRectangle width="114" height="22" as="alternateBounds" />
          </mxGeometry>
        </mxCell>
        <mxCell id="K3cF6xItk9wDHvpq5ndR-52" style="shape=tableRow;horizontal=0;startSize=0;swimlaneHead=0;swimlaneBody=0;fillColor=none;collapsible=0;dropTarget=0;points=[[0,0.5],[1,0.5]];portConstraint=eastwest;top=0;left=0;right=0;bottom=0;" vertex="1" parent="K3cF6xItk9wDHvpq5ndR-36">
          <mxGeometry y="135" width="180" height="22" as="geometry" />
        </mxCell>
        <mxCell id="K3cF6xItk9wDHvpq5ndR-53" value="uuid" style="shape=partialRectangle;connectable=0;fillColor=none;top=0;left=0;bottom=0;right=0;align=left;spacingLeft=2;overflow=hidden;fontSize=11;" vertex="1" parent="K3cF6xItk9wDHvpq5ndR-52">
          <mxGeometry width="66" height="22" as="geometry">
            <mxRectangle width="66" height="22" as="alternateBounds" />
          </mxGeometry>
        </mxCell>
        <mxCell id="K3cF6xItk9wDHvpq5ndR-54" value="user_implementer_id" style="shape=partialRectangle;connectable=0;fillColor=none;top=0;left=0;bottom=0;right=0;align=left;spacingLeft=2;overflow=hidden;fontSize=11;" vertex="1" parent="K3cF6xItk9wDHvpq5ndR-52">
          <mxGeometry x="66" width="114" height="22" as="geometry">
            <mxRectangle width="114" height="22" as="alternateBounds" />
          </mxGeometry>
        </mxCell>
        <mxCell id="K3cF6xItk9wDHvpq5ndR-55" value="parent" style="startArrow=ERmandOne;startSize=10;;endArrow=ERzeroToOne;endSize=10;;exitX=1;exitY=0.5;entryX=1;entryY=0.5;entryDx=0;entryDy=0;exitDx=0;exitDy=0;edgeStyle=orthogonalEdgeStyle;" edge="1" parent="K3cF6xItk9wDHvpq5ndR-36" source="K3cF6xItk9wDHvpq5ndR-37" target="K3cF6xItk9wDHvpq5ndR-43">
          <mxGeometry relative="1" as="geometry">
            <Array as="points">
              <mxPoint x="243" y="36" />
              <mxPoint x="243" y="80" />
            </Array>
          </mxGeometry>
        </mxCell>
        <mxCell id="K3cF6xItk9wDHvpq5ndR-56" value="ORDER_PARAM_VALUE" style="shape=table;startSize=25;container=1;collapsible=0;childLayout=tableLayout;fixedRows=1;rowLines=1;fontStyle=1;align=center;resizeLast=1;" vertex="1" parent="1">
          <mxGeometry x="100" y="590" width="147" height="113" as="geometry" />
        </mxCell>
        <mxCell id="K3cF6xItk9wDHvpq5ndR-57" style="shape=tableRow;horizontal=0;startSize=0;swimlaneHead=0;swimlaneBody=0;fillColor=none;collapsible=0;dropTarget=0;points=[[0,0.5],[1,0.5]];portConstraint=eastwest;top=0;left=0;right=0;bottom=0;" vertex="1" parent="K3cF6xItk9wDHvpq5ndR-56">
          <mxGeometry y="25" width="147" height="22" as="geometry" />
        </mxCell>
        <mxCell id="K3cF6xItk9wDHvpq5ndR-58" value="uuid" style="shape=partialRectangle;connectable=0;fillColor=none;top=0;left=0;bottom=0;right=0;align=left;spacingLeft=2;overflow=hidden;fontSize=11;" vertex="1" parent="K3cF6xItk9wDHvpq5ndR-57">
          <mxGeometry width="72" height="22" as="geometry">
            <mxRectangle width="72" height="22" as="alternateBounds" />
          </mxGeometry>
        </mxCell>
        <mxCell id="K3cF6xItk9wDHvpq5ndR-59" value="id" style="shape=partialRectangle;connectable=0;fillColor=none;top=0;left=0;bottom=0;right=0;align=left;spacingLeft=2;overflow=hidden;fontSize=11;" vertex="1" parent="K3cF6xItk9wDHvpq5ndR-57">
          <mxGeometry x="72" width="75" height="22" as="geometry">
            <mxRectangle width="75" height="22" as="alternateBounds" />
          </mxGeometry>
        </mxCell>
        <mxCell id="K3cF6xItk9wDHvpq5ndR-60" style="shape=tableRow;horizontal=0;startSize=0;swimlaneHead=0;swimlaneBody=0;fillColor=none;collapsible=0;dropTarget=0;points=[[0,0.5],[1,0.5]];portConstraint=eastwest;top=0;left=0;right=0;bottom=0;" vertex="1" parent="K3cF6xItk9wDHvpq5ndR-56">
          <mxGeometry y="47" width="147" height="22" as="geometry" />
        </mxCell>
        <mxCell id="K3cF6xItk9wDHvpq5ndR-61" value="date" style="shape=partialRectangle;connectable=0;fillColor=none;top=0;left=0;bottom=0;right=0;align=left;spacingLeft=2;overflow=hidden;fontSize=11;" vertex="1" parent="K3cF6xItk9wDHvpq5ndR-60">
          <mxGeometry width="72" height="22" as="geometry">
            <mxRectangle width="72" height="22" as="alternateBounds" />
          </mxGeometry>
        </mxCell>
        <mxCell id="K3cF6xItk9wDHvpq5ndR-62" value="created_at" style="shape=partialRectangle;connectable=0;fillColor=none;top=0;left=0;bottom=0;right=0;align=left;spacingLeft=2;overflow=hidden;fontSize=11;" vertex="1" parent="K3cF6xItk9wDHvpq5ndR-60">
          <mxGeometry x="72" width="75" height="22" as="geometry">
            <mxRectangle width="75" height="22" as="alternateBounds" />
          </mxGeometry>
        </mxCell>
        <mxCell id="K3cF6xItk9wDHvpq5ndR-63" style="shape=tableRow;horizontal=0;startSize=0;swimlaneHead=0;swimlaneBody=0;fillColor=none;collapsible=0;dropTarget=0;points=[[0,0.5],[1,0.5]];portConstraint=eastwest;top=0;left=0;right=0;bottom=0;" vertex="1" parent="K3cF6xItk9wDHvpq5ndR-56">
          <mxGeometry y="69" width="147" height="22" as="geometry" />
        </mxCell>
        <mxCell id="K3cF6xItk9wDHvpq5ndR-64" value="date" style="shape=partialRectangle;connectable=0;fillColor=none;top=0;left=0;bottom=0;right=0;align=left;spacingLeft=2;overflow=hidden;fontSize=11;" vertex="1" parent="K3cF6xItk9wDHvpq5ndR-63">
          <mxGeometry width="72" height="22" as="geometry">
            <mxRectangle width="72" height="22" as="alternateBounds" />
          </mxGeometry>
        </mxCell>
        <mxCell id="K3cF6xItk9wDHvpq5ndR-65" value="updated_at" style="shape=partialRectangle;connectable=0;fillColor=none;top=0;left=0;bottom=0;right=0;align=left;spacingLeft=2;overflow=hidden;fontSize=11;" vertex="1" parent="K3cF6xItk9wDHvpq5ndR-63">
          <mxGeometry x="72" width="75" height="22" as="geometry">
            <mxRectangle width="75" height="22" as="alternateBounds" />
          </mxGeometry>
        </mxCell>
        <mxCell id="K3cF6xItk9wDHvpq5ndR-66" style="shape=tableRow;horizontal=0;startSize=0;swimlaneHead=0;swimlaneBody=0;fillColor=none;collapsible=0;dropTarget=0;points=[[0,0.5],[1,0.5]];portConstraint=eastwest;top=0;left=0;right=0;bottom=0;" vertex="1" parent="K3cF6xItk9wDHvpq5ndR-56">
          <mxGeometry y="91" width="147" height="22" as="geometry" />
        </mxCell>
        <mxCell id="K3cF6xItk9wDHvpq5ndR-67" value="text" style="shape=partialRectangle;connectable=0;fillColor=none;top=0;left=0;bottom=0;right=0;align=left;spacingLeft=2;overflow=hidden;fontSize=11;" vertex="1" parent="K3cF6xItk9wDHvpq5ndR-66">
          <mxGeometry width="72" height="22" as="geometry">
            <mxRectangle width="72" height="22" as="alternateBounds" />
          </mxGeometry>
        </mxCell>
        <mxCell id="K3cF6xItk9wDHvpq5ndR-68" value="value" style="shape=partialRectangle;connectable=0;fillColor=none;top=0;left=0;bottom=0;right=0;align=left;spacingLeft=2;overflow=hidden;fontSize=11;" vertex="1" parent="K3cF6xItk9wDHvpq5ndR-66">
          <mxGeometry x="72" width="75" height="22" as="geometry">
            <mxRectangle width="75" height="22" as="alternateBounds" />
          </mxGeometry>
        </mxCell>
        <mxCell id="K3cF6xItk9wDHvpq5ndR-69" value="ORDER_CONFIRMATION" style="shape=table;startSize=25;container=1;collapsible=0;childLayout=tableLayout;fixedRows=1;rowLines=1;fontStyle=1;align=center;resizeLast=1;" vertex="1" parent="1">
          <mxGeometry x="321" y="590" width="152" height="135" as="geometry" />
        </mxCell>
        <mxCell id="K3cF6xItk9wDHvpq5ndR-70" style="shape=tableRow;horizontal=0;startSize=0;swimlaneHead=0;swimlaneBody=0;fillColor=none;collapsible=0;dropTarget=0;points=[[0,0.5],[1,0.5]];portConstraint=eastwest;top=0;left=0;right=0;bottom=0;" vertex="1" parent="K3cF6xItk9wDHvpq5ndR-69">
          <mxGeometry y="25" width="152" height="22" as="geometry" />
        </mxCell>
        <mxCell id="K3cF6xItk9wDHvpq5ndR-71" value="uuid" style="shape=partialRectangle;connectable=0;fillColor=none;top=0;left=0;bottom=0;right=0;align=left;spacingLeft=2;overflow=hidden;fontSize=11;" vertex="1" parent="K3cF6xItk9wDHvpq5ndR-70">
          <mxGeometry width="29" height="22" as="geometry">
            <mxRectangle width="29" height="22" as="alternateBounds" />
          </mxGeometry>
        </mxCell>
        <mxCell id="K3cF6xItk9wDHvpq5ndR-72" value="id" style="shape=partialRectangle;connectable=0;fillColor=none;top=0;left=0;bottom=0;right=0;align=left;spacingLeft=2;overflow=hidden;fontSize=11;" vertex="1" parent="K3cF6xItk9wDHvpq5ndR-70">
          <mxGeometry x="29" width="123" height="22" as="geometry">
            <mxRectangle width="123" height="22" as="alternateBounds" />
          </mxGeometry>
        </mxCell>
        <mxCell id="K3cF6xItk9wDHvpq5ndR-73" style="shape=tableRow;horizontal=0;startSize=0;swimlaneHead=0;swimlaneBody=0;fillColor=none;collapsible=0;dropTarget=0;points=[[0,0.5],[1,0.5]];portConstraint=eastwest;top=0;left=0;right=0;bottom=0;" vertex="1" parent="K3cF6xItk9wDHvpq5ndR-69">
          <mxGeometry y="47" width="152" height="22" as="geometry" />
        </mxCell>
        <mxCell id="K3cF6xItk9wDHvpq5ndR-74" value="date" style="shape=partialRectangle;connectable=0;fillColor=none;top=0;left=0;bottom=0;right=0;align=left;spacingLeft=2;overflow=hidden;fontSize=11;" vertex="1" parent="K3cF6xItk9wDHvpq5ndR-73">
          <mxGeometry width="29" height="22" as="geometry">
            <mxRectangle width="29" height="22" as="alternateBounds" />
          </mxGeometry>
        </mxCell>
        <mxCell id="K3cF6xItk9wDHvpq5ndR-75" value="created_at" style="shape=partialRectangle;connectable=0;fillColor=none;top=0;left=0;bottom=0;right=0;align=left;spacingLeft=2;overflow=hidden;fontSize=11;" vertex="1" parent="K3cF6xItk9wDHvpq5ndR-73">
          <mxGeometry x="29" width="123" height="22" as="geometry">
            <mxRectangle width="123" height="22" as="alternateBounds" />
          </mxGeometry>
        </mxCell>
        <mxCell id="K3cF6xItk9wDHvpq5ndR-76" style="shape=tableRow;horizontal=0;startSize=0;swimlaneHead=0;swimlaneBody=0;fillColor=none;collapsible=0;dropTarget=0;points=[[0,0.5],[1,0.5]];portConstraint=eastwest;top=0;left=0;right=0;bottom=0;" vertex="1" parent="K3cF6xItk9wDHvpq5ndR-69">
          <mxGeometry y="69" width="152" height="22" as="geometry" />
        </mxCell>
        <mxCell id="K3cF6xItk9wDHvpq5ndR-77" value="date" style="shape=partialRectangle;connectable=0;fillColor=none;top=0;left=0;bottom=0;right=0;align=left;spacingLeft=2;overflow=hidden;fontSize=11;" vertex="1" parent="K3cF6xItk9wDHvpq5ndR-76">
          <mxGeometry width="29" height="22" as="geometry">
            <mxRectangle width="29" height="22" as="alternateBounds" />
          </mxGeometry>
        </mxCell>
        <mxCell id="K3cF6xItk9wDHvpq5ndR-78" value="updated_at" style="shape=partialRectangle;connectable=0;fillColor=none;top=0;left=0;bottom=0;right=0;align=left;spacingLeft=2;overflow=hidden;fontSize=11;" vertex="1" parent="K3cF6xItk9wDHvpq5ndR-76">
          <mxGeometry x="29" width="123" height="22" as="geometry">
            <mxRectangle width="123" height="22" as="alternateBounds" />
          </mxGeometry>
        </mxCell>
        <mxCell id="K3cF6xItk9wDHvpq5ndR-79" style="shape=tableRow;horizontal=0;startSize=0;swimlaneHead=0;swimlaneBody=0;fillColor=none;collapsible=0;dropTarget=0;points=[[0,0.5],[1,0.5]];portConstraint=eastwest;top=0;left=0;right=0;bottom=0;" vertex="1" parent="K3cF6xItk9wDHvpq5ndR-69">
          <mxGeometry y="91" width="152" height="22" as="geometry" />
        </mxCell>
        <mxCell id="K3cF6xItk9wDHvpq5ndR-80" value="uuid" style="shape=partialRectangle;connectable=0;fillColor=none;top=0;left=0;bottom=0;right=0;align=left;spacingLeft=2;overflow=hidden;fontSize=11;" vertex="1" parent="K3cF6xItk9wDHvpq5ndR-79">
          <mxGeometry width="29" height="22" as="geometry">
            <mxRectangle width="29" height="22" as="alternateBounds" />
          </mxGeometry>
        </mxCell>
        <mxCell id="K3cF6xItk9wDHvpq5ndR-81" value="user_id" style="shape=partialRectangle;connectable=0;fillColor=none;top=0;left=0;bottom=0;right=0;align=left;spacingLeft=2;overflow=hidden;fontSize=11;" vertex="1" parent="K3cF6xItk9wDHvpq5ndR-79">
          <mxGeometry x="29" width="123" height="22" as="geometry">
            <mxRectangle width="123" height="22" as="alternateBounds" />
          </mxGeometry>
        </mxCell>
        <mxCell id="K3cF6xItk9wDHvpq5ndR-82" style="shape=tableRow;horizontal=0;startSize=0;swimlaneHead=0;swimlaneBody=0;fillColor=none;collapsible=0;dropTarget=0;points=[[0,0.5],[1,0.5]];portConstraint=eastwest;top=0;left=0;right=0;bottom=0;" vertex="1" parent="K3cF6xItk9wDHvpq5ndR-69">
          <mxGeometry y="113" width="152" height="22" as="geometry" />
        </mxCell>
        <mxCell id="K3cF6xItk9wDHvpq5ndR-83" value="bool" style="shape=partialRectangle;connectable=0;fillColor=none;top=0;left=0;bottom=0;right=0;align=left;spacingLeft=2;overflow=hidden;fontSize=11;" vertex="1" parent="K3cF6xItk9wDHvpq5ndR-82">
          <mxGeometry width="29" height="22" as="geometry">
            <mxRectangle width="29" height="22" as="alternateBounds" />
          </mxGeometry>
        </mxCell>
        <mxCell id="K3cF6xItk9wDHvpq5ndR-84" value="signed" style="shape=partialRectangle;connectable=0;fillColor=none;top=0;left=0;bottom=0;right=0;align=left;spacingLeft=2;overflow=hidden;fontSize=11;" vertex="1" parent="K3cF6xItk9wDHvpq5ndR-82">
          <mxGeometry x="29" width="123" height="22" as="geometry">
            <mxRectangle width="123" height="22" as="alternateBounds" />
          </mxGeometry>
        </mxCell>
        <mxCell id="K3cF6xItk9wDHvpq5ndR-85" value="ORDER_STATUS_UPDATE" style="shape=table;startSize=25;container=1;collapsible=0;childLayout=tableLayout;fixedRows=1;rowLines=1;fontStyle=1;align=center;resizeLast=1;" vertex="1" parent="1">
          <mxGeometry x="569" y="590" width="158" height="157" as="geometry" />
        </mxCell>
        <mxCell id="K3cF6xItk9wDHvpq5ndR-86" style="shape=tableRow;horizontal=0;startSize=0;swimlaneHead=0;swimlaneBody=0;fillColor=none;collapsible=0;dropTarget=0;points=[[0,0.5],[1,0.5]];portConstraint=eastwest;top=0;left=0;right=0;bottom=0;" vertex="1" parent="K3cF6xItk9wDHvpq5ndR-85">
          <mxGeometry y="25" width="158" height="22" as="geometry" />
        </mxCell>
        <mxCell id="K3cF6xItk9wDHvpq5ndR-87" value="uuid" style="shape=partialRectangle;connectable=0;fillColor=none;top=0;left=0;bottom=0;right=0;align=left;spacingLeft=2;overflow=hidden;fontSize=11;" vertex="1" parent="K3cF6xItk9wDHvpq5ndR-86">
          <mxGeometry width="66" height="22" as="geometry">
            <mxRectangle width="66" height="22" as="alternateBounds" />
          </mxGeometry>
        </mxCell>
        <mxCell id="K3cF6xItk9wDHvpq5ndR-88" value="id" style="shape=partialRectangle;connectable=0;fillColor=none;top=0;left=0;bottom=0;right=0;align=left;spacingLeft=2;overflow=hidden;fontSize=11;" vertex="1" parent="K3cF6xItk9wDHvpq5ndR-86">
          <mxGeometry x="66" width="92" height="22" as="geometry">
            <mxRectangle width="92" height="22" as="alternateBounds" />
          </mxGeometry>
        </mxCell>
        <mxCell id="K3cF6xItk9wDHvpq5ndR-89" style="shape=tableRow;horizontal=0;startSize=0;swimlaneHead=0;swimlaneBody=0;fillColor=none;collapsible=0;dropTarget=0;points=[[0,0.5],[1,0.5]];portConstraint=eastwest;top=0;left=0;right=0;bottom=0;" vertex="1" parent="K3cF6xItk9wDHvpq5ndR-85">
          <mxGeometry y="47" width="158" height="22" as="geometry" />
        </mxCell>
        <mxCell id="K3cF6xItk9wDHvpq5ndR-90" value="date" style="shape=partialRectangle;connectable=0;fillColor=none;top=0;left=0;bottom=0;right=0;align=left;spacingLeft=2;overflow=hidden;fontSize=11;" vertex="1" parent="K3cF6xItk9wDHvpq5ndR-89">
          <mxGeometry width="66" height="22" as="geometry">
            <mxRectangle width="66" height="22" as="alternateBounds" />
          </mxGeometry>
        </mxCell>
        <mxCell id="K3cF6xItk9wDHvpq5ndR-91" value="created_at" style="shape=partialRectangle;connectable=0;fillColor=none;top=0;left=0;bottom=0;right=0;align=left;spacingLeft=2;overflow=hidden;fontSize=11;" vertex="1" parent="K3cF6xItk9wDHvpq5ndR-89">
          <mxGeometry x="66" width="92" height="22" as="geometry">
            <mxRectangle width="92" height="22" as="alternateBounds" />
          </mxGeometry>
        </mxCell>
        <mxCell id="K3cF6xItk9wDHvpq5ndR-92" style="shape=tableRow;horizontal=0;startSize=0;swimlaneHead=0;swimlaneBody=0;fillColor=none;collapsible=0;dropTarget=0;points=[[0,0.5],[1,0.5]];portConstraint=eastwest;top=0;left=0;right=0;bottom=0;" vertex="1" parent="K3cF6xItk9wDHvpq5ndR-85">
          <mxGeometry y="69" width="158" height="22" as="geometry" />
        </mxCell>
        <mxCell id="K3cF6xItk9wDHvpq5ndR-93" value="date" style="shape=partialRectangle;connectable=0;fillColor=none;top=0;left=0;bottom=0;right=0;align=left;spacingLeft=2;overflow=hidden;fontSize=11;" vertex="1" parent="K3cF6xItk9wDHvpq5ndR-92">
          <mxGeometry width="66" height="22" as="geometry">
            <mxRectangle width="66" height="22" as="alternateBounds" />
          </mxGeometry>
        </mxCell>
        <mxCell id="K3cF6xItk9wDHvpq5ndR-94" value="updated_at" style="shape=partialRectangle;connectable=0;fillColor=none;top=0;left=0;bottom=0;right=0;align=left;spacingLeft=2;overflow=hidden;fontSize=11;" vertex="1" parent="K3cF6xItk9wDHvpq5ndR-92">
          <mxGeometry x="66" width="92" height="22" as="geometry">
            <mxRectangle width="92" height="22" as="alternateBounds" />
          </mxGeometry>
        </mxCell>
        <mxCell id="K3cF6xItk9wDHvpq5ndR-95" style="shape=tableRow;horizontal=0;startSize=0;swimlaneHead=0;swimlaneBody=0;fillColor=none;collapsible=0;dropTarget=0;points=[[0,0.5],[1,0.5]];portConstraint=eastwest;top=0;left=0;right=0;bottom=0;" vertex="1" parent="K3cF6xItk9wDHvpq5ndR-85">
          <mxGeometry y="91" width="158" height="22" as="geometry" />
        </mxCell>
        <mxCell id="K3cF6xItk9wDHvpq5ndR-96" value="uuid" style="shape=partialRectangle;connectable=0;fillColor=none;top=0;left=0;bottom=0;right=0;align=left;spacingLeft=2;overflow=hidden;fontSize=11;" vertex="1" parent="K3cF6xItk9wDHvpq5ndR-95">
          <mxGeometry width="66" height="22" as="geometry">
            <mxRectangle width="66" height="22" as="alternateBounds" />
          </mxGeometry>
        </mxCell>
        <mxCell id="K3cF6xItk9wDHvpq5ndR-97" value="user_id" style="shape=partialRectangle;connectable=0;fillColor=none;top=0;left=0;bottom=0;right=0;align=left;spacingLeft=2;overflow=hidden;fontSize=11;" vertex="1" parent="K3cF6xItk9wDHvpq5ndR-95">
          <mxGeometry x="66" width="92" height="22" as="geometry">
            <mxRectangle width="92" height="22" as="alternateBounds" />
          </mxGeometry>
        </mxCell>
        <mxCell id="K3cF6xItk9wDHvpq5ndR-98" style="shape=tableRow;horizontal=0;startSize=0;swimlaneHead=0;swimlaneBody=0;fillColor=none;collapsible=0;dropTarget=0;points=[[0,0.5],[1,0.5]];portConstraint=eastwest;top=0;left=0;right=0;bottom=0;" vertex="1" parent="K3cF6xItk9wDHvpq5ndR-85">
          <mxGeometry y="113" width="158" height="22" as="geometry" />
        </mxCell>
        <mxCell id="K3cF6xItk9wDHvpq5ndR-99" value="varchar(50)" style="shape=partialRectangle;connectable=0;fillColor=none;top=0;left=0;bottom=0;right=0;align=left;spacingLeft=2;overflow=hidden;fontSize=11;" vertex="1" parent="K3cF6xItk9wDHvpq5ndR-98">
          <mxGeometry width="66" height="22" as="geometry">
            <mxRectangle width="66" height="22" as="alternateBounds" />
          </mxGeometry>
        </mxCell>
        <mxCell id="K3cF6xItk9wDHvpq5ndR-100" value="old_status" style="shape=partialRectangle;connectable=0;fillColor=none;top=0;left=0;bottom=0;right=0;align=left;spacingLeft=2;overflow=hidden;fontSize=11;" vertex="1" parent="K3cF6xItk9wDHvpq5ndR-98">
          <mxGeometry x="66" width="92" height="22" as="geometry">
            <mxRectangle width="92" height="22" as="alternateBounds" />
          </mxGeometry>
        </mxCell>
        <mxCell id="K3cF6xItk9wDHvpq5ndR-101" style="shape=tableRow;horizontal=0;startSize=0;swimlaneHead=0;swimlaneBody=0;fillColor=none;collapsible=0;dropTarget=0;points=[[0,0.5],[1,0.5]];portConstraint=eastwest;top=0;left=0;right=0;bottom=0;" vertex="1" parent="K3cF6xItk9wDHvpq5ndR-85">
          <mxGeometry y="135" width="158" height="22" as="geometry" />
        </mxCell>
        <mxCell id="K3cF6xItk9wDHvpq5ndR-102" value="varchar(50)" style="shape=partialRectangle;connectable=0;fillColor=none;top=0;left=0;bottom=0;right=0;align=left;spacingLeft=2;overflow=hidden;fontSize=11;" vertex="1" parent="K3cF6xItk9wDHvpq5ndR-101">
          <mxGeometry width="66" height="22" as="geometry">
            <mxRectangle width="66" height="22" as="alternateBounds" />
          </mxGeometry>
        </mxCell>
        <mxCell id="K3cF6xItk9wDHvpq5ndR-103" value="new_status" style="shape=partialRectangle;connectable=0;fillColor=none;top=0;left=0;bottom=0;right=0;align=left;spacingLeft=2;overflow=hidden;fontSize=11;" vertex="1" parent="K3cF6xItk9wDHvpq5ndR-101">
          <mxGeometry x="66" width="92" height="22" as="geometry">
            <mxRectangle width="92" height="22" as="alternateBounds" />
          </mxGeometry>
        </mxCell>
        <mxCell id="K3cF6xItk9wDHvpq5ndR-104" value="contains" style="startArrow=ERmandOne;startSize=10;;endArrow=ERmany;endSize=10;;exitX=-0.002194171815406619;exitY=0.8163922368432223;entryX=0.4987713428253823;entryY=0.001273865912370621;rounded=1;edgeStyle=orthogonalEdgeStyle;" edge="1" parent="1" source="K3cF6xItk9wDHvpq5ndR-1" target="K3cF6xItk9wDHvpq5ndR-17">
          <mxGeometry relative="1" as="geometry" />
        </mxCell>
        <mxCell id="K3cF6xItk9wDHvpq5ndR-105" value="type_of" style="startArrow=ERmandOne;startSize=10;;endArrow=ERmany;endSize=10;;exitX=0.9946923744021439;exitY=0.9319796714287354;entryX=0.4771972868177626;entryY=-0.002564112345377604;rounded=1;edgeStyle=orthogonalEdgeStyle;" edge="1" parent="1" source="K3cF6xItk9wDHvpq5ndR-1" target="K3cF6xItk9wDHvpq5ndR-36">
          <mxGeometry relative="1" as="geometry" />
        </mxCell>
        <mxCell id="K3cF6xItk9wDHvpq5ndR-106" value="contains" style="startArrow=ERmandOne;startSize=10;;endArrow=ERmany;endSize=10;;exitX=0.0026584413316514755;exitY=0.9017833011790355;entryX=0.7385740121194191;entryY=-0.0017857892172677176;rounded=1;edgeStyle=orthogonalEdgeStyle;" edge="1" parent="1" source="K3cF6xItk9wDHvpq5ndR-36" target="K3cF6xItk9wDHvpq5ndR-56">
          <mxGeometry relative="1" as="geometry" />
        </mxCell>
        <mxCell id="K3cF6xItk9wDHvpq5ndR-107" value="type_of" style="startArrow=ERmandOne;startSize=10;;endArrow=ERmany;endSize=10;;exitX=0.4987713428253823;exitY=1.0025477318247413;entryX=0.3584257064146256;entryY=-0.0017857892172677176;rounded=1;edgeStyle=orthogonalEdgeStyle;" edge="1" parent="1" source="K3cF6xItk9wDHvpq5ndR-17" target="K3cF6xItk9wDHvpq5ndR-56">
          <mxGeometry relative="1" as="geometry" />
        </mxCell>
        <mxCell id="K3cF6xItk9wDHvpq5ndR-108" value="contains" style="startArrow=ERmandOne;startSize=10;;endArrow=ERmany;endSize=10;;exitX=0.4771972868177626;exitY=0.9999999510936248;entryX=0.49931257649471883;entryY=0.0014924576033407183;rounded=1;edgeStyle=orthogonalEdgeStyle;" edge="1" parent="1" source="K3cF6xItk9wDHvpq5ndR-36" target="K3cF6xItk9wDHvpq5ndR-69">
          <mxGeometry relative="1" as="geometry" />
        </mxCell>
        <mxCell id="K3cF6xItk9wDHvpq5ndR-109" value="contains" style="startArrow=ERmandOne;startSize=10;;endArrow=ERmany;endSize=10;;exitX=0.9517361323038737;exitY=0.7749944845295784;entryX=0.4985079946397226;entryY=0.002547731824741242;rounded=1;edgeStyle=orthogonalEdgeStyle;" edge="1" parent="1" source="K3cF6xItk9wDHvpq5ndR-36" target="K3cF6xItk9wDHvpq5ndR-85">
          <mxGeometry relative="1" as="geometry" />
        </mxCell>
      </root>
    </mxGraphModel>
  </diagram>
</mxfile>
